<mxfile host="app.diagrams.net" modified="2022-04-29T07:39:01.559Z" agent="5.0 (Windows NT 10.0; Win64; x64) AppleWebKit/537.36 (KHTML, like Gecko) Chrome/100.0.4896.127 Safari/537.36" etag="Ci2BLUPtvqz8doraju-K" version="17.5.0" type="github">
  <diagram id="dn16DxldGP9FRI6uqD-U" name="Page-1">
    <mxGraphModel dx="942" dy="614" grid="1" gridSize="10" guides="1" tooltips="1" connect="1" arrows="1" fold="1" page="1" pageScale="1" pageWidth="1100" pageHeight="850" math="0" shadow="0">
      <root>
        <mxCell id="0" />
        <mxCell id="1" parent="0" />
        <mxCell id="enk3c5EGaKRnMTfw7i84-21" value="" style="rounded=0;whiteSpace=wrap;html=1;" parent="1" vertex="1">
          <mxGeometry x="270" y="70" width="330" height="540" as="geometry" />
        </mxCell>
        <mxCell id="enk3c5EGaKRnMTfw7i84-29" style="rounded=0;orthogonalLoop=1;jettySize=auto;html=1;exitX=1;exitY=0.3333333333333333;exitDx=0;exitDy=0;exitPerimeter=0;entryX=0;entryY=0.5;entryDx=0;entryDy=0;endArrow=none;endFill=0;" parent="1" source="enk3c5EGaKRnMTfw7i84-14" target="enk3c5EGaKRnMTfw7i84-28" edge="1">
          <mxGeometry relative="1" as="geometry" />
        </mxCell>
        <mxCell id="enk3c5EGaKRnMTfw7i84-33" style="edgeStyle=none;rounded=0;orthogonalLoop=1;jettySize=auto;html=1;exitX=1;exitY=0.3333333333333333;exitDx=0;exitDy=0;exitPerimeter=0;entryX=0;entryY=0.5;entryDx=0;entryDy=0;endArrow=none;endFill=0;" parent="1" source="enk3c5EGaKRnMTfw7i84-14" target="enk3c5EGaKRnMTfw7i84-32" edge="1">
          <mxGeometry relative="1" as="geometry" />
        </mxCell>
        <mxCell id="enk3c5EGaKRnMTfw7i84-37" style="edgeStyle=none;rounded=0;orthogonalLoop=1;jettySize=auto;html=1;exitX=1;exitY=0.3333333333333333;exitDx=0;exitDy=0;exitPerimeter=0;entryX=0;entryY=0.5;entryDx=0;entryDy=0;endArrow=none;endFill=0;" parent="1" source="enk3c5EGaKRnMTfw7i84-14" target="enk3c5EGaKRnMTfw7i84-35" edge="1">
          <mxGeometry relative="1" as="geometry" />
        </mxCell>
        <mxCell id="enk3c5EGaKRnMTfw7i84-44" style="edgeStyle=none;rounded=0;orthogonalLoop=1;jettySize=auto;html=1;exitX=1;exitY=0.3333333333333333;exitDx=0;exitDy=0;exitPerimeter=0;entryX=0;entryY=0.5;entryDx=0;entryDy=0;endArrow=none;endFill=0;" parent="1" source="enk3c5EGaKRnMTfw7i84-14" target="enk3c5EGaKRnMTfw7i84-43" edge="1">
          <mxGeometry relative="1" as="geometry" />
        </mxCell>
        <mxCell id="enk3c5EGaKRnMTfw7i84-14" value="Student" style="shape=umlActor;verticalLabelPosition=bottom;verticalAlign=top;html=1;outlineConnect=0;" parent="1" vertex="1">
          <mxGeometry x="220" y="210" width="30" height="60" as="geometry" />
        </mxCell>
        <mxCell id="enk3c5EGaKRnMTfw7i84-22" value="DSSC" style="shape=umlActor;verticalLabelPosition=bottom;verticalAlign=top;html=1;outlineConnect=0;" parent="1" vertex="1">
          <mxGeometry x="630" y="90" width="30" height="60" as="geometry" />
        </mxCell>
        <mxCell id="enk3c5EGaKRnMTfw7i84-24" value="Cashier" style="shape=umlActor;verticalLabelPosition=bottom;verticalAlign=top;html=1;outlineConnect=0;" parent="1" vertex="1">
          <mxGeometry x="630" y="200" width="30" height="60" as="geometry" />
        </mxCell>
        <mxCell id="enk3c5EGaKRnMTfw7i84-25" value="Division" style="shape=umlActor;verticalLabelPosition=bottom;verticalAlign=top;html=1;outlineConnect=0;" parent="1" vertex="1">
          <mxGeometry x="630" y="420" width="30" height="60" as="geometry" />
        </mxCell>
        <mxCell id="enk3c5EGaKRnMTfw7i84-26" value="Registrar" style="shape=umlActor;verticalLabelPosition=bottom;verticalAlign=top;html=1;outlineConnect=0;" parent="1" vertex="1">
          <mxGeometry x="630" y="540" width="30" height="60" as="geometry" />
        </mxCell>
        <mxCell id="enk3c5EGaKRnMTfw7i84-30" style="edgeStyle=none;rounded=0;orthogonalLoop=1;jettySize=auto;html=1;exitX=1;exitY=0.5;exitDx=0;exitDy=0;entryX=0;entryY=0.3333333333333333;entryDx=0;entryDy=0;entryPerimeter=0;endArrow=none;endFill=0;" parent="1" source="enk3c5EGaKRnMTfw7i84-28" target="enk3c5EGaKRnMTfw7i84-22" edge="1">
          <mxGeometry relative="1" as="geometry" />
        </mxCell>
        <mxCell id="enk3c5EGaKRnMTfw7i84-28" value="Student Registration" style="ellipse;whiteSpace=wrap;html=1;" parent="1" vertex="1">
          <mxGeometry x="375" y="110" width="120" height="80" as="geometry" />
        </mxCell>
        <mxCell id="enk3c5EGaKRnMTfw7i84-34" style="edgeStyle=none;rounded=0;orthogonalLoop=1;jettySize=auto;html=1;exitX=1;exitY=0.5;exitDx=0;exitDy=0;entryX=0;entryY=0.3333333333333333;entryDx=0;entryDy=0;entryPerimeter=0;endArrow=none;endFill=0;" parent="1" source="enk3c5EGaKRnMTfw7i84-32" target="enk3c5EGaKRnMTfw7i84-24" edge="1">
          <mxGeometry relative="1" as="geometry" />
        </mxCell>
        <mxCell id="enk3c5EGaKRnMTfw7i84-32" value="School Payment System" style="ellipse;whiteSpace=wrap;html=1;" parent="1" vertex="1">
          <mxGeometry x="370" y="210" width="120" height="80" as="geometry" />
        </mxCell>
        <mxCell id="enk3c5EGaKRnMTfw7i84-38" style="edgeStyle=none;rounded=0;orthogonalLoop=1;jettySize=auto;html=1;exitX=1;exitY=0.5;exitDx=0;exitDy=0;entryX=0;entryY=0.3333333333333333;entryDx=0;entryDy=0;entryPerimeter=0;endArrow=none;endFill=0;" parent="1" source="enk3c5EGaKRnMTfw7i84-35" target="enk3c5EGaKRnMTfw7i84-25" edge="1">
          <mxGeometry relative="1" as="geometry" />
        </mxCell>
        <mxCell id="enk3c5EGaKRnMTfw7i84-35" value="Loading of Subjects" style="ellipse;whiteSpace=wrap;html=1;" parent="1" vertex="1">
          <mxGeometry x="380" y="400" width="120" height="80" as="geometry" />
        </mxCell>
        <mxCell id="enk3c5EGaKRnMTfw7i84-50" style="edgeStyle=none;rounded=0;orthogonalLoop=1;jettySize=auto;html=1;exitX=1;exitY=0.5;exitDx=0;exitDy=0;entryX=0;entryY=0.3333333333333333;entryDx=0;entryDy=0;entryPerimeter=0;endArrow=none;endFill=0;" parent="1" source="enk3c5EGaKRnMTfw7i84-43" target="enk3c5EGaKRnMTfw7i84-46" edge="1">
          <mxGeometry relative="1" as="geometry" />
        </mxCell>
        <mxCell id="enk3c5EGaKRnMTfw7i84-43" value="Student Evaluation/Monitoring" style="ellipse;whiteSpace=wrap;html=1;" parent="1" vertex="1">
          <mxGeometry x="380" y="300" width="120" height="80" as="geometry" />
        </mxCell>
        <mxCell id="enk3c5EGaKRnMTfw7i84-46" value="Guidance Office" style="shape=umlActor;verticalLabelPosition=bottom;verticalAlign=top;html=1;outlineConnect=0;" parent="1" vertex="1">
          <mxGeometry x="630" y="310" width="30" height="60" as="geometry" />
        </mxCell>
        <mxCell id="enk3c5EGaKRnMTfw7i84-52" style="edgeStyle=none;rounded=0;orthogonalLoop=1;jettySize=auto;html=1;exitX=1;exitY=0.5;exitDx=0;exitDy=0;entryX=0;entryY=0.3333333333333333;entryDx=0;entryDy=0;entryPerimeter=0;endArrow=none;endFill=0;" parent="1" source="enk3c5EGaKRnMTfw7i84-51" target="enk3c5EGaKRnMTfw7i84-26" edge="1">
          <mxGeometry relative="1" as="geometry" />
        </mxCell>
        <mxCell id="enk3c5EGaKRnMTfw7i84-53" style="edgeStyle=none;rounded=0;orthogonalLoop=1;jettySize=auto;html=1;exitX=1;exitY=0.5;exitDx=0;exitDy=0;entryX=0;entryY=0.3333333333333333;entryDx=0;entryDy=0;entryPerimeter=0;endArrow=none;endFill=0;" parent="1" source="enk3c5EGaKRnMTfw7i84-51" target="enk3c5EGaKRnMTfw7i84-25" edge="1">
          <mxGeometry relative="1" as="geometry" />
        </mxCell>
        <mxCell id="enk3c5EGaKRnMTfw7i84-51" value="Student Validation" style="ellipse;whiteSpace=wrap;html=1;" parent="1" vertex="1">
          <mxGeometry x="380" y="500" width="120" height="80" as="geometry" />
        </mxCell>
        <mxCell id="T9gFs5C0N2ZRe9xrZvvq-1" value="USE CASE DIAGRAM" style="text;html=1;strokeColor=none;fillColor=none;align=center;verticalAlign=middle;whiteSpace=wrap;rounded=0;fontSize=14;fontStyle=1" parent="1" vertex="1">
          <mxGeometry x="345" y="20" width="190" height="30" as="geometry" />
        </mxCell>
        <mxCell id="nxQRn7uYnPMJrTWuMp_o-1" value="USE CASE DIAGRAM" style="text;html=1;strokeColor=none;fillColor=none;align=center;verticalAlign=middle;whiteSpace=wrap;rounded=0;fontSize=14;fontStyle=1" vertex="1" parent="1">
          <mxGeometry x="880" y="20" width="190" height="30" as="geometry" />
        </mxCell>
        <mxCell id="nxQRn7uYnPMJrTWuMp_o-2" value="" style="rounded=0;whiteSpace=wrap;html=1;" vertex="1" parent="1">
          <mxGeometry x="809" y="50" width="361" height="660" as="geometry" />
        </mxCell>
        <mxCell id="nxQRn7uYnPMJrTWuMp_o-3" value="Student" style="shape=umlActor;verticalLabelPosition=bottom;verticalAlign=top;html=1;outlineConnect=0;" vertex="1" parent="1">
          <mxGeometry x="760" y="80" width="30" height="60" as="geometry" />
        </mxCell>
        <mxCell id="nxQRn7uYnPMJrTWuMp_o-76" style="edgeStyle=none;rounded=0;orthogonalLoop=1;jettySize=auto;html=1;exitX=0.5;exitY=0;exitDx=0;exitDy=0;entryX=0;entryY=1;entryDx=0;entryDy=0;dashed=1;endArrow=none;endFill=0;" edge="1" parent="1" source="nxQRn7uYnPMJrTWuMp_o-4" target="nxQRn7uYnPMJrTWuMp_o-74">
          <mxGeometry relative="1" as="geometry" />
        </mxCell>
        <mxCell id="nxQRn7uYnPMJrTWuMp_o-4" value="sign in" style="ellipse;whiteSpace=wrap;html=1;verticalAlign=top;" vertex="1" parent="1">
          <mxGeometry x="930" y="105" width="120" height="30" as="geometry" />
        </mxCell>
        <mxCell id="nxQRn7uYnPMJrTWuMp_o-6" value="DSSC" style="shape=umlActor;verticalLabelPosition=bottom;verticalAlign=top;html=1;outlineConnect=0;" vertex="1" parent="1">
          <mxGeometry x="1180" y="200" width="30" height="60" as="geometry" />
        </mxCell>
        <mxCell id="nxQRn7uYnPMJrTWuMp_o-8" value="register student" style="ellipse;whiteSpace=wrap;html=1;verticalAlign=top;" vertex="1" parent="1">
          <mxGeometry x="990" y="225" width="120" height="30" as="geometry" />
        </mxCell>
        <mxCell id="nxQRn7uYnPMJrTWuMp_o-15" value="" style="endArrow=none;html=1;rounded=0;exitX=1;exitY=0.3333333333333333;exitDx=0;exitDy=0;exitPerimeter=0;entryX=0;entryY=0.5;entryDx=0;entryDy=0;" edge="1" parent="1" source="nxQRn7uYnPMJrTWuMp_o-3" target="nxQRn7uYnPMJrTWuMp_o-4">
          <mxGeometry width="50" height="50" relative="1" as="geometry">
            <mxPoint x="860" y="230" as="sourcePoint" />
            <mxPoint x="910" y="180" as="targetPoint" />
          </mxGeometry>
        </mxCell>
        <mxCell id="nxQRn7uYnPMJrTWuMp_o-18" value="" style="endArrow=none;html=1;rounded=0;entryX=0;entryY=0.3333333333333333;entryDx=0;entryDy=0;entryPerimeter=0;exitX=1;exitY=0.5;exitDx=0;exitDy=0;" edge="1" parent="1" source="nxQRn7uYnPMJrTWuMp_o-8" target="nxQRn7uYnPMJrTWuMp_o-6">
          <mxGeometry width="50" height="50" relative="1" as="geometry">
            <mxPoint x="710" y="330" as="sourcePoint" />
            <mxPoint x="760" y="280" as="targetPoint" />
          </mxGeometry>
        </mxCell>
        <mxCell id="nxQRn7uYnPMJrTWuMp_o-24" value="" style="endArrow=none;dashed=1;html=1;rounded=0;exitX=1;exitY=0.5;exitDx=0;exitDy=0;" edge="1" parent="1" source="nxQRn7uYnPMJrTWuMp_o-25" target="nxQRn7uYnPMJrTWuMp_o-8">
          <mxGeometry width="50" height="50" relative="1" as="geometry">
            <mxPoint x="970" y="280" as="sourcePoint" />
            <mxPoint x="970" y="250" as="targetPoint" />
          </mxGeometry>
        </mxCell>
        <mxCell id="nxQRn7uYnPMJrTWuMp_o-25" value="verify student" style="ellipse;whiteSpace=wrap;html=1;verticalAlign=top;" vertex="1" parent="1">
          <mxGeometry x="900" y="255" width="120" height="30" as="geometry" />
        </mxCell>
        <mxCell id="nxQRn7uYnPMJrTWuMp_o-26" value="&amp;lt;&amp;lt;includes&amp;gt;&amp;gt;" style="text;html=1;strokeColor=none;fillColor=none;align=center;verticalAlign=middle;whiteSpace=wrap;rounded=0;" vertex="1" parent="1">
          <mxGeometry x="1050" y="255" width="60" height="30" as="geometry" />
        </mxCell>
        <mxCell id="nxQRn7uYnPMJrTWuMp_o-70" style="edgeStyle=none;rounded=0;orthogonalLoop=1;jettySize=auto;html=1;exitX=1;exitY=0;exitDx=0;exitDy=0;entryX=0;entryY=1;entryDx=0;entryDy=0;dashed=1;endArrow=none;endFill=0;" edge="1" parent="1" source="nxQRn7uYnPMJrTWuMp_o-28" target="nxQRn7uYnPMJrTWuMp_o-69">
          <mxGeometry relative="1" as="geometry" />
        </mxCell>
        <mxCell id="nxQRn7uYnPMJrTWuMp_o-28" value="pay school bills" style="ellipse;whiteSpace=wrap;html=1;verticalAlign=top;" vertex="1" parent="1">
          <mxGeometry x="930" y="140" width="120" height="30" as="geometry" />
        </mxCell>
        <mxCell id="nxQRn7uYnPMJrTWuMp_o-30" value="" style="endArrow=none;html=1;rounded=0;entryX=0;entryY=0.5;entryDx=0;entryDy=0;" edge="1" parent="1" target="nxQRn7uYnPMJrTWuMp_o-28">
          <mxGeometry width="50" height="50" relative="1" as="geometry">
            <mxPoint x="810" y="100" as="sourcePoint" />
            <mxPoint x="900" y="150" as="targetPoint" />
          </mxGeometry>
        </mxCell>
        <mxCell id="nxQRn7uYnPMJrTWuMp_o-31" value="get subjects and schedules" style="ellipse;whiteSpace=wrap;html=1;verticalAlign=top;" vertex="1" parent="1">
          <mxGeometry x="870" y="184" width="120" height="40" as="geometry" />
        </mxCell>
        <mxCell id="nxQRn7uYnPMJrTWuMp_o-34" value="" style="endArrow=none;html=1;rounded=0;entryX=0;entryY=0.07;entryDx=0;entryDy=0;entryPerimeter=0;exitX=0;exitY=0.5;exitDx=0;exitDy=0;" edge="1" parent="1" source="nxQRn7uYnPMJrTWuMp_o-31" target="nxQRn7uYnPMJrTWuMp_o-2">
          <mxGeometry width="50" height="50" relative="1" as="geometry">
            <mxPoint x="710" y="330" as="sourcePoint" />
            <mxPoint x="760" y="280" as="targetPoint" />
          </mxGeometry>
        </mxCell>
        <mxCell id="nxQRn7uYnPMJrTWuMp_o-35" value="CASHIER" style="shape=umlActor;verticalLabelPosition=bottom;verticalAlign=top;html=1;outlineConnect=0;" vertex="1" parent="1">
          <mxGeometry x="750" y="300" width="30" height="60" as="geometry" />
        </mxCell>
        <mxCell id="nxQRn7uYnPMJrTWuMp_o-40" style="rounded=0;orthogonalLoop=1;jettySize=auto;html=1;exitX=1;exitY=1;exitDx=0;exitDy=0;entryX=0;entryY=0.5;entryDx=0;entryDy=0;dashed=1;endArrow=none;endFill=0;" edge="1" parent="1" source="nxQRn7uYnPMJrTWuMp_o-36" target="nxQRn7uYnPMJrTWuMp_o-38">
          <mxGeometry relative="1" as="geometry" />
        </mxCell>
        <mxCell id="nxQRn7uYnPMJrTWuMp_o-36" value="record payment" style="ellipse;whiteSpace=wrap;html=1;verticalAlign=top;" vertex="1" parent="1">
          <mxGeometry x="850" y="310" width="120" height="30" as="geometry" />
        </mxCell>
        <mxCell id="nxQRn7uYnPMJrTWuMp_o-37" value="" style="endArrow=none;html=1;rounded=0;exitX=1;exitY=0.3333333333333333;exitDx=0;exitDy=0;exitPerimeter=0;entryX=0;entryY=0.5;entryDx=0;entryDy=0;" edge="1" parent="1" source="nxQRn7uYnPMJrTWuMp_o-35" target="nxQRn7uYnPMJrTWuMp_o-36">
          <mxGeometry width="50" height="50" relative="1" as="geometry">
            <mxPoint x="800" y="330" as="sourcePoint" />
            <mxPoint x="850" y="280" as="targetPoint" />
          </mxGeometry>
        </mxCell>
        <mxCell id="nxQRn7uYnPMJrTWuMp_o-38" value="verify transaction" style="ellipse;whiteSpace=wrap;html=1;verticalAlign=top;" vertex="1" parent="1">
          <mxGeometry x="980" y="340" width="120" height="30" as="geometry" />
        </mxCell>
        <mxCell id="nxQRn7uYnPMJrTWuMp_o-39" value="&amp;lt;&amp;lt;includes&amp;gt;&amp;gt;" style="text;html=1;strokeColor=none;fillColor=none;align=center;verticalAlign=middle;whiteSpace=wrap;rounded=0;" vertex="1" parent="1">
          <mxGeometry x="980" y="315" width="60" height="30" as="geometry" />
        </mxCell>
        <mxCell id="nxQRn7uYnPMJrTWuMp_o-43" style="edgeStyle=none;rounded=0;orthogonalLoop=1;jettySize=auto;html=1;exitX=0;exitY=0.3333333333333333;exitDx=0;exitDy=0;exitPerimeter=0;entryX=1;entryY=0.5;entryDx=0;entryDy=0;endArrow=none;endFill=0;" edge="1" parent="1" source="nxQRn7uYnPMJrTWuMp_o-41" target="nxQRn7uYnPMJrTWuMp_o-42">
          <mxGeometry relative="1" as="geometry" />
        </mxCell>
        <mxCell id="nxQRn7uYnPMJrTWuMp_o-41" value="GUIDANCE&lt;br&gt;&amp;nbsp;OFFICE" style="shape=umlActor;verticalLabelPosition=bottom;verticalAlign=top;html=1;outlineConnect=0;" vertex="1" parent="1">
          <mxGeometry x="1190" y="380" width="30" height="60" as="geometry" />
        </mxCell>
        <mxCell id="nxQRn7uYnPMJrTWuMp_o-42" value="provide consent and monitoring form" style="ellipse;whiteSpace=wrap;html=1;verticalAlign=top;" vertex="1" parent="1">
          <mxGeometry x="950" y="395" width="150" height="45" as="geometry" />
        </mxCell>
        <mxCell id="nxQRn7uYnPMJrTWuMp_o-49" style="edgeStyle=none;rounded=0;orthogonalLoop=1;jettySize=auto;html=1;exitX=0;exitY=0;exitDx=0;exitDy=0;entryX=1;entryY=0.5;entryDx=0;entryDy=0;endArrow=none;endFill=0;dashed=1;" edge="1" parent="1" source="nxQRn7uYnPMJrTWuMp_o-44" target="nxQRn7uYnPMJrTWuMp_o-48">
          <mxGeometry relative="1" as="geometry" />
        </mxCell>
        <mxCell id="nxQRn7uYnPMJrTWuMp_o-52" style="edgeStyle=none;rounded=0;orthogonalLoop=1;jettySize=auto;html=1;exitX=0;exitY=0.5;exitDx=0;exitDy=0;entryX=0.5;entryY=0;entryDx=0;entryDy=0;dashed=1;endArrow=none;endFill=0;" edge="1" parent="1" source="nxQRn7uYnPMJrTWuMp_o-44" target="nxQRn7uYnPMJrTWuMp_o-51">
          <mxGeometry relative="1" as="geometry" />
        </mxCell>
        <mxCell id="nxQRn7uYnPMJrTWuMp_o-44" value="load subjects and schedules" style="ellipse;whiteSpace=wrap;html=1;verticalAlign=top;" vertex="1" parent="1">
          <mxGeometry x="1000" y="500" width="120" height="40" as="geometry" />
        </mxCell>
        <mxCell id="nxQRn7uYnPMJrTWuMp_o-46" style="edgeStyle=none;rounded=0;orthogonalLoop=1;jettySize=auto;html=1;exitX=0;exitY=0.3333333333333333;exitDx=0;exitDy=0;exitPerimeter=0;entryX=1;entryY=0.5;entryDx=0;entryDy=0;endArrow=none;endFill=0;" edge="1" parent="1" source="nxQRn7uYnPMJrTWuMp_o-45" target="nxQRn7uYnPMJrTWuMp_o-44">
          <mxGeometry relative="1" as="geometry" />
        </mxCell>
        <mxCell id="nxQRn7uYnPMJrTWuMp_o-45" value="DIVISION" style="shape=umlActor;verticalLabelPosition=bottom;verticalAlign=top;html=1;outlineConnect=0;" vertex="1" parent="1">
          <mxGeometry x="1190" y="490" width="30" height="60" as="geometry" />
        </mxCell>
        <mxCell id="nxQRn7uYnPMJrTWuMp_o-48" value="verify registration" style="ellipse;whiteSpace=wrap;html=1;verticalAlign=top;" vertex="1" parent="1">
          <mxGeometry x="850" y="480" width="120" height="40" as="geometry" />
        </mxCell>
        <mxCell id="nxQRn7uYnPMJrTWuMp_o-50" value="&amp;lt;&amp;lt;includes&amp;gt;&amp;gt;" style="text;html=1;strokeColor=none;fillColor=none;align=center;verticalAlign=middle;whiteSpace=wrap;rounded=0;" vertex="1" parent="1">
          <mxGeometry x="970" y="470" width="60" height="30" as="geometry" />
        </mxCell>
        <mxCell id="nxQRn7uYnPMJrTWuMp_o-51" value="provide subjects and schedules" style="ellipse;whiteSpace=wrap;html=1;verticalAlign=top;" vertex="1" parent="1">
          <mxGeometry x="869" y="554" width="120" height="40" as="geometry" />
        </mxCell>
        <mxCell id="nxQRn7uYnPMJrTWuMp_o-53" value="&amp;lt;&amp;lt;extends&amp;gt;&amp;gt;" style="text;html=1;strokeColor=none;fillColor=none;align=center;verticalAlign=middle;whiteSpace=wrap;rounded=0;" vertex="1" parent="1">
          <mxGeometry x="860" y="532" width="60" height="30" as="geometry" />
        </mxCell>
        <mxCell id="nxQRn7uYnPMJrTWuMp_o-56" style="edgeStyle=none;rounded=0;orthogonalLoop=1;jettySize=auto;html=1;entryX=1;entryY=0.5;entryDx=0;entryDy=0;endArrow=none;endFill=0;exitX=0;exitY=0.3333333333333333;exitDx=0;exitDy=0;exitPerimeter=0;" edge="1" parent="1" source="nxQRn7uYnPMJrTWuMp_o-54" target="nxQRn7uYnPMJrTWuMp_o-55">
          <mxGeometry relative="1" as="geometry" />
        </mxCell>
        <mxCell id="nxQRn7uYnPMJrTWuMp_o-54" value="REGISTRAR" style="shape=umlActor;verticalLabelPosition=bottom;verticalAlign=top;html=1;outlineConnect=0;" vertex="1" parent="1">
          <mxGeometry x="1190" y="590" width="30" height="60" as="geometry" />
        </mxCell>
        <mxCell id="nxQRn7uYnPMJrTWuMp_o-59" style="edgeStyle=none;rounded=0;orthogonalLoop=1;jettySize=auto;html=1;exitX=0;exitY=0.5;exitDx=0;exitDy=0;entryX=0.958;entryY=0.325;entryDx=0;entryDy=0;entryPerimeter=0;dashed=1;endArrow=none;endFill=0;" edge="1" parent="1" source="nxQRn7uYnPMJrTWuMp_o-55" target="nxQRn7uYnPMJrTWuMp_o-57">
          <mxGeometry relative="1" as="geometry" />
        </mxCell>
        <mxCell id="nxQRn7uYnPMJrTWuMp_o-55" value="finalize student enrollment" style="ellipse;whiteSpace=wrap;html=1;verticalAlign=top;" vertex="1" parent="1">
          <mxGeometry x="1010" y="630" width="120" height="40" as="geometry" />
        </mxCell>
        <mxCell id="nxQRn7uYnPMJrTWuMp_o-57" value="verify enrolled subjects" style="ellipse;whiteSpace=wrap;html=1;verticalAlign=top;" vertex="1" parent="1">
          <mxGeometry x="820" y="627" width="120" height="40" as="geometry" />
        </mxCell>
        <mxCell id="nxQRn7uYnPMJrTWuMp_o-60" value="&amp;lt;&amp;lt;includes&amp;gt;&amp;gt;" style="text;html=1;strokeColor=none;fillColor=none;align=center;verticalAlign=middle;whiteSpace=wrap;rounded=0;" vertex="1" parent="1">
          <mxGeometry x="945" y="610" width="60" height="30" as="geometry" />
        </mxCell>
        <mxCell id="nxQRn7uYnPMJrTWuMp_o-67" style="edgeStyle=none;rounded=0;orthogonalLoop=1;jettySize=auto;html=1;entryX=1;entryY=0.5;entryDx=0;entryDy=0;dashed=1;endArrow=none;endFill=0;startArrow=none;" edge="1" parent="1" source="nxQRn7uYnPMJrTWuMp_o-68" target="nxQRn7uYnPMJrTWuMp_o-31">
          <mxGeometry relative="1" as="geometry" />
        </mxCell>
        <mxCell id="nxQRn7uYnPMJrTWuMp_o-62" value="adding/dropping" style="ellipse;whiteSpace=wrap;html=1;verticalAlign=top;" vertex="1" parent="1">
          <mxGeometry x="1040" y="184" width="120" height="30" as="geometry" />
        </mxCell>
        <mxCell id="nxQRn7uYnPMJrTWuMp_o-69" value="online payment" style="ellipse;whiteSpace=wrap;html=1;verticalAlign=top;" vertex="1" parent="1">
          <mxGeometry x="1060" y="90" width="101" height="30" as="geometry" />
        </mxCell>
        <mxCell id="nxQRn7uYnPMJrTWuMp_o-71" value="&amp;lt;&amp;lt;extends&amp;gt;&amp;gt;" style="text;html=1;strokeColor=none;fillColor=none;align=center;verticalAlign=middle;whiteSpace=wrap;rounded=0;" vertex="1" parent="1">
          <mxGeometry x="1060" y="120" width="60" height="30" as="geometry" />
        </mxCell>
        <mxCell id="nxQRn7uYnPMJrTWuMp_o-68" value="&amp;lt;&amp;lt;extends&amp;gt;&amp;gt;" style="text;html=1;strokeColor=none;fillColor=none;align=center;verticalAlign=middle;whiteSpace=wrap;rounded=0;" vertex="1" parent="1">
          <mxGeometry x="984" y="174" width="60" height="30" as="geometry" />
        </mxCell>
        <mxCell id="nxQRn7uYnPMJrTWuMp_o-72" value="" style="edgeStyle=none;rounded=0;orthogonalLoop=1;jettySize=auto;html=1;entryX=1;entryY=0.5;entryDx=0;entryDy=0;dashed=1;endArrow=none;endFill=0;" edge="1" parent="1" source="nxQRn7uYnPMJrTWuMp_o-62" target="nxQRn7uYnPMJrTWuMp_o-68">
          <mxGeometry relative="1" as="geometry">
            <mxPoint x="1034.1582050491772" y="194.67771226739603" as="sourcePoint" />
            <mxPoint x="990" y="204" as="targetPoint" />
          </mxGeometry>
        </mxCell>
        <mxCell id="nxQRn7uYnPMJrTWuMp_o-73" style="edgeStyle=none;rounded=0;orthogonalLoop=1;jettySize=auto;html=1;entryX=1;entryY=1;entryDx=0;entryDy=0;dashed=1;endArrow=none;endFill=0;" edge="1" parent="1" target="nxQRn7uYnPMJrTWuMp_o-68">
          <mxGeometry relative="1" as="geometry">
            <mxPoint x="990" y="204" as="sourcePoint" />
          </mxGeometry>
        </mxCell>
        <mxCell id="nxQRn7uYnPMJrTWuMp_o-74" value="online enrollment" style="ellipse;whiteSpace=wrap;html=1;verticalAlign=top;" vertex="1" parent="1">
          <mxGeometry x="980" y="60" width="101" height="30" as="geometry" />
        </mxCell>
        <mxCell id="nxQRn7uYnPMJrTWuMp_o-75" value="&amp;lt;&amp;lt;extends&amp;gt;&amp;gt;" style="text;html=1;strokeColor=none;fillColor=none;align=center;verticalAlign=middle;whiteSpace=wrap;rounded=0;" vertex="1" parent="1">
          <mxGeometry x="920" y="70" width="60" height="30" as="geometry" />
        </mxCell>
      </root>
    </mxGraphModel>
  </diagram>
</mxfile>
